<?xml version="1.0" encoding="utf-8"?>
<!-- Generator: Adobe Illustrator 17.1.0, SVG Export Plug-In . SVG Version: 6.00 Build 0)  -->
<!DOCTYPE svg PUBLIC "-//W3C//DTD SVG 1.1//EN" "http://www.w3.org/Graphics/SVG/1.1/DTD/svg11.dtd">
<svg version="1.1" id="Layer_1" xmlns="http://www.w3.org/2000/svg" xmlns:xlink="http://www.w3.org/1999/xlink" x="0px" y="0px"
	 viewBox="0 0 193 37" enable-background="new 0 0 193 37" xml:space="preserve">
<g>
	<path fill="#4167B1" d="M-181,34.9c0.3,0.4,0.7,0.8,1.2,1.2c0.5,0.4,1,0.8,1.5,1.2c0.6,0.4,1.2,0.7,1.9,0.9
		c0.7,0.2,1.5,0.4,2.4,0.4c1.6,0,2.8-0.4,3.6-1.1c0.8-0.7,1.2-1.6,1.2-2.7c0-0.6-0.1-1.1-0.3-1.5c-0.2-0.5-0.6-0.8-1.1-1.2
		c-0.5-0.3-1.2-0.7-2-0.9c-0.8-0.3-1.9-0.5-3.1-0.8c-1.3-0.2-2.3-0.6-3.3-1.2c-0.9-0.5-1.7-1.1-2.3-1.8c-0.6-0.7-1.1-1.5-1.4-2.4
		c-0.3-0.9-0.5-1.7-0.5-2.6c0-1,0.2-2,0.6-3c0.4-0.9,1-1.8,1.8-2.5c0.8-0.7,1.8-1.3,3-1.7c1.2-0.4,2.6-0.7,4.2-0.7
		c1.5,0,2.7,0.2,3.7,0.5c1,0.3,1.9,0.7,2.6,1.2c0.7,0.4,1.2,0.9,1.6,1.3c0.4,0.4,0.7,0.7,0.8,0.9l-3.4,3.2c-0.1-0.1-0.4-0.3-0.7-0.6
		s-0.7-0.6-1.1-0.8c-0.5-0.3-1-0.5-1.6-0.7c-0.6-0.2-1.3-0.3-2.1-0.3c-0.7,0-1.3,0.1-1.8,0.3c-0.5,0.2-1,0.4-1.3,0.7
		c-0.3,0.3-0.6,0.6-0.8,1c-0.2,0.4-0.2,0.7-0.2,1c0,0.5,0.1,0.9,0.3,1.3c0.2,0.4,0.5,0.7,0.9,1.1c0.4,0.3,1,0.6,1.7,0.9
		c0.7,0.3,1.7,0.5,2.8,0.7c1.1,0.2,2.1,0.5,3.1,1c1,0.4,1.9,1,2.6,1.7c0.8,0.7,1.4,1.5,1.8,2.5c0.5,1,0.7,2.2,0.7,3.6
		c0,1.2-0.2,2.3-0.7,3.3c-0.5,1-1.2,1.9-2.1,2.7c-0.9,0.8-1.9,1.4-3.1,1.8c-1.2,0.4-2.5,0.6-3.9,0.6c-1.4,0-2.6-0.2-3.7-0.5
		c-1.1-0.3-2.1-0.7-3-1.3c-0.9-0.5-1.7-1.1-2.3-1.7c-0.6-0.6-1.2-1.2-1.6-1.7L-181,34.9z"/>
	<path fill="#4167B1" d="M-158.6,15.2h5.2v11h13.6v-11h5.2v27.4h-5.2V30.8h-13.6v11.8h-5.2V15.2z"/>
	<path fill="#4167B1" d="M-121.2,15.2h5.3l10.4,27.4h-5.8l-2.4-6.9h-10.2l-2.4,6.9h-5.4L-121.2,15.2z M-115.1,31.4l-3.6-10.6
		l-3.7,10.6H-115.1z"/>
	<path fill="#4167B1" d="M-102.4,15.2h9.1c1.7,0,3.2,0.3,4.4,0.8c1.2,0.5,2.2,1.2,2.9,2c0.7,0.8,1.3,1.7,1.6,2.7
		c0.3,1,0.5,1.9,0.5,2.8c0,1.7-0.4,3.3-1.1,4.6c-0.8,1.3-1.9,2.4-3.5,3.2l6.3,11.5h-5.8l-5.5-10.8h-3.9v10.8h-5V15.2z M-93.2,27.5
		c1.3,0,2.3-0.4,3.1-1.2c0.7-0.8,1.1-1.7,1.1-2.8c0-1.2-0.4-2.1-1.2-2.9c-0.8-0.7-1.8-1.1-3-1.1h-4.1v7.9H-93.2z"/>
	<path fill="#4167B1" d="M-65.5,43.3c-2,0-3.9-0.4-5.6-1.1c-1.7-0.8-3.2-1.8-4.5-3.1c-1.3-1.3-2.3-2.8-3-4.6
		c-0.7-1.8-1.1-3.6-1.1-5.6c0-2,0.4-3.9,1.1-5.6c0.7-1.8,1.7-3.3,3-4.6c1.3-1.3,2.8-2.3,4.5-3.1c1.7-0.8,3.6-1.1,5.6-1.1
		c2,0,3.9,0.4,5.6,1.1c1.7,0.8,3.2,1.8,4.5,3.1c1.3,1.3,2.3,2.8,3,4.6c0.7,1.8,1.1,3.6,1.1,5.6c0,2-0.4,3.9-1.1,5.6
		c-0.7,1.8-1.8,3.3-3,4.6c-1.3,1.3-2.8,2.3-4.5,3.1C-61.6,43-63.5,43.3-65.5,43.3z M-65.5,38.4c1.3,0,2.6-0.3,3.7-0.8
		c1.1-0.5,2-1.2,2.8-2.1c0.8-0.9,1.4-1.9,1.8-3.1s0.6-2.4,0.6-3.7c0-1.3-0.2-2.6-0.6-3.7c-0.4-1.2-1-2.2-1.8-3.1
		c-0.8-0.9-1.7-1.6-2.8-2.1c-1.1-0.5-2.3-0.8-3.7-0.8c-1.4,0-2.6,0.3-3.7,0.8s-2,1.2-2.8,2.1c-0.8,0.9-1.4,1.9-1.8,3.1
		c-0.4,1.2-0.6,2.4-0.6,3.7c0,1.3,0.2,2.5,0.6,3.7c0.4,1.2,1,2.2,1.8,3.1c0.8,0.9,1.7,1.6,2.8,2.1C-68.1,38.2-66.9,38.4-65.5,38.4z"
		/>
	<path fill="#4167B1" d="M-46.6,15.2h5.2l13.3,19.5V15.2h5.1v27.4h-5.1l-13.4-19.7v19.7h-5.1V15.2z"/>
</g>
<g>
	<path fill="#FFFFFF" d="M5.8,4.8h9.1c1.7,0,3.2,0.3,4.4,0.8c1.2,0.5,2.2,1.2,2.9,2c0.7,0.8,1.3,1.7,1.6,2.7c0.3,1,0.5,1.9,0.5,2.8
		c0,1.7-0.4,3.3-1.1,4.6c-0.8,1.3-1.9,2.4-3.5,3.2l6.3,11.5h-5.8l-5.5-10.8h-3.9v10.8h-5V4.8z M14.9,17.1c1.3,0,2.3-0.4,3.1-1.2
		c0.7-0.8,1.1-1.7,1.1-2.8c0-1.2-0.4-2.1-1.2-2.9c-0.8-0.7-1.8-1.1-3-1.1h-4.1v7.9H14.9z"/>
	<path fill="#FFFFFF" d="M29.9,4.8h5.2v27.4h-5.2V4.8z"/>
	<path fill="#FFFFFF" d="M38.2,4.8h5.8l7.3,20.9l7.3-20.9h5.4L53.7,32.2h-5.3L38.2,4.8z"/>
	<path fill="#FFFFFF" d="M67,4.8h17.8v4.6H72.1v6.5h9.2v4.6h-9.2v7.1h13.5v4.6H67V4.8z"/>
	<path fill="#FFFFFF" d="M90.3,4.8h9.1c1.7,0,3.2,0.3,4.4,0.8c1.2,0.5,2.2,1.2,2.9,2c0.7,0.8,1.3,1.7,1.6,2.7c0.3,1,0.5,1.9,0.5,2.8
		c0,1.7-0.4,3.3-1.1,4.6c-0.8,1.3-1.9,2.4-3.5,3.2l6.3,11.5h-5.8l-5.5-10.8h-3.9v10.8h-5V4.8z M99.4,17.1c1.3,0,2.3-0.4,3.1-1.2
		c0.7-0.8,1.1-1.7,1.1-2.8c0-1.2-0.4-2.1-1.2-2.9c-0.8-0.7-1.8-1.1-3-1.1h-4.1v7.9H99.4z"/>
	<path fill="#FFFFFF" d="M123.8,24.5c0.3,0.4,0.7,0.8,1.2,1.2c0.5,0.4,1,0.8,1.5,1.2c0.6,0.4,1.2,0.7,1.9,0.9
		c0.7,0.2,1.5,0.4,2.4,0.4c1.6,0,2.8-0.4,3.6-1.1c0.8-0.7,1.2-1.6,1.2-2.7c0-0.6-0.1-1.1-0.3-1.5c-0.2-0.5-0.6-0.8-1.1-1.2
		c-0.5-0.3-1.2-0.7-2-0.9c-0.8-0.3-1.9-0.5-3.1-0.8c-1.3-0.2-2.3-0.6-3.3-1.2c-0.9-0.5-1.7-1.1-2.3-1.8c-0.6-0.7-1.1-1.5-1.4-2.4
		c-0.3-0.9-0.5-1.7-0.5-2.6c0-1,0.2-2,0.6-3c0.4-0.9,1-1.8,1.8-2.5c0.8-0.7,1.8-1.3,3-1.7c1.2-0.4,2.6-0.7,4.2-0.7
		c1.5,0,2.7,0.2,3.7,0.5s1.9,0.7,2.6,1.2c0.7,0.4,1.2,0.9,1.6,1.3c0.4,0.4,0.7,0.7,0.8,0.9l-3.4,3.2c-0.1-0.1-0.4-0.3-0.7-0.6
		c-0.3-0.3-0.7-0.6-1.1-0.8c-0.5-0.3-1-0.5-1.6-0.7c-0.6-0.2-1.3-0.3-2.1-0.3c-0.7,0-1.3,0.1-1.8,0.3c-0.5,0.2-1,0.4-1.3,0.7
		c-0.3,0.3-0.6,0.6-0.8,1c-0.2,0.4-0.2,0.7-0.2,1c0,0.5,0.1,0.9,0.3,1.3c0.2,0.4,0.5,0.7,0.9,1.1c0.4,0.3,1,0.6,1.7,0.9
		c0.7,0.3,1.7,0.5,2.8,0.7c1.1,0.2,2.1,0.5,3.1,1c1,0.4,1.9,1,2.6,1.7c0.8,0.7,1.4,1.5,1.8,2.5c0.5,1,0.7,2.2,0.7,3.6
		c0,1.2-0.2,2.3-0.7,3.3c-0.5,1-1.2,1.9-2.1,2.7s-1.9,1.4-3.1,1.8s-2.5,0.6-3.9,0.6c-1.4,0-2.6-0.2-3.7-0.5c-1.1-0.3-2.1-0.7-3-1.3
		c-0.9-0.5-1.7-1.1-2.3-1.7c-0.6-0.6-1.2-1.2-1.6-1.7L123.8,24.5z"/>
	<path fill="#FFFFFF" d="M146.2,4.8h17.8v4.6h-12.6v6.5h9.2v4.6h-9.2v7.1h13.5v4.6h-18.7V4.8z"/>
	<path fill="#FFFFFF" d="M169.5,4.8h17.8v4.6h-12.6v6.5h9.2v4.6h-9.2v7.1h13.5v4.6h-18.7V4.8z"/>
</g>
</svg>
