<?xml version="1.0" encoding="utf-8"?>
<!-- Generator: Adobe Illustrator 17.1.0, SVG Export Plug-In . SVG Version: 6.00 Build 0)  -->
<!DOCTYPE svg PUBLIC "-//W3C//DTD SVG 1.1//EN" "http://www.w3.org/Graphics/SVG/1.1/DTD/svg11.dtd">
<svg version="1.1" id="Layer_1" xmlns="http://www.w3.org/2000/svg" xmlns:xlink="http://www.w3.org/1999/xlink" x="0px" y="0px"
	 viewBox="0 0 63.2 37.9" enable-background="new 0 0 63.2 37.9" xml:space="preserve">
<g>
	<path fill="#4167B1" d="M-19.8,119.4c0.3,0.4,0.7,0.8,1.2,1.2c0.5,0.4,1,0.8,1.5,1.2c0.6,0.4,1.2,0.7,1.9,0.9
		c0.7,0.2,1.5,0.4,2.4,0.4c1.6,0,2.8-0.4,3.6-1.1c0.8-0.7,1.2-1.6,1.2-2.7c0-0.6-0.1-1.1-0.3-1.5c-0.2-0.5-0.6-0.8-1.1-1.2
		c-0.5-0.3-1.2-0.7-2-0.9c-0.8-0.3-1.9-0.5-3.1-0.8c-1.3-0.2-2.3-0.6-3.3-1.2c-0.9-0.5-1.7-1.1-2.3-1.8c-0.6-0.7-1.1-1.5-1.4-2.4
		c-0.3-0.9-0.5-1.7-0.5-2.6c0-1,0.2-2,0.6-3c0.4-0.9,1-1.8,1.8-2.5c0.8-0.7,1.8-1.3,3-1.7c1.2-0.4,2.6-0.7,4.2-0.7
		c1.5,0,2.7,0.2,3.7,0.5c1,0.3,1.9,0.7,2.6,1.2c0.7,0.4,1.2,0.9,1.6,1.3c0.4,0.4,0.7,0.7,0.8,0.9l-3.4,3.2c-0.1-0.1-0.4-0.3-0.7-0.6
		c-0.3-0.3-0.7-0.6-1.1-0.8c-0.5-0.3-1-0.5-1.6-0.7c-0.6-0.2-1.3-0.3-2.1-0.3c-0.7,0-1.3,0.1-1.8,0.3c-0.5,0.2-1,0.4-1.3,0.7
		c-0.3,0.3-0.6,0.6-0.8,1c-0.2,0.4-0.2,0.7-0.2,1c0,0.5,0.1,0.9,0.3,1.3c0.2,0.4,0.5,0.7,0.9,1.1c0.4,0.3,1,0.6,1.7,0.9
		c0.7,0.3,1.7,0.5,2.8,0.7c1.1,0.2,2.1,0.5,3.1,1c1,0.4,1.9,1,2.6,1.7c0.8,0.7,1.4,1.5,1.8,2.5c0.5,1,0.7,2.2,0.7,3.6
		c0,1.2-0.2,2.3-0.7,3.3c-0.5,1-1.2,1.9-2.1,2.7c-0.9,0.8-1.9,1.4-3.1,1.8c-1.2,0.4-2.5,0.6-3.9,0.6c-1.4,0-2.6-0.2-3.7-0.5
		c-1.1-0.3-2.1-0.7-3-1.3c-0.9-0.5-1.7-1.1-2.3-1.7c-0.6-0.6-1.2-1.2-1.6-1.7L-19.8,119.4z"/>
	<path fill="#4167B1" d="M2.5,99.7h5.2v11h13.6v-11h5.2v27.4h-5.2v-11.8H7.7v11.8H2.5V99.7z"/>
	<path fill="#4167B1" d="M40,99.7h5.3l10.4,27.4h-5.8l-2.4-6.9H37.4l-2.4,6.9h-5.4L40,99.7z M46.1,115.9l-3.6-10.6l-3.7,10.6H46.1z"
		/>
	<path fill="#4167B1" d="M58.8,99.7h9.1c1.7,0,3.2,0.3,4.4,0.8c1.2,0.5,2.2,1.2,2.9,2c0.7,0.8,1.3,1.7,1.6,2.7
		c0.3,1,0.5,1.9,0.5,2.8c0,1.7-0.4,3.3-1.1,4.6c-0.8,1.3-1.9,2.4-3.5,3.2l6.3,11.5h-5.8l-5.5-10.8h-3.9v10.8h-5V99.7z M67.9,112.1
		c1.3,0,2.3-0.4,3.1-1.2c0.7-0.8,1.1-1.7,1.1-2.8c0-1.2-0.4-2.1-1.2-2.9c-0.8-0.7-1.8-1.1-3-1.1h-4.1v7.9H67.9z"/>
	<path fill="#4167B1" d="M95.6,127.9c-2,0-3.9-0.4-5.6-1.1c-1.7-0.8-3.2-1.8-4.5-3.1c-1.3-1.3-2.3-2.8-3-4.6
		c-0.7-1.8-1.1-3.6-1.1-5.6c0-2,0.4-3.9,1.1-5.6c0.7-1.8,1.7-3.3,3-4.6c1.3-1.3,2.8-2.3,4.5-3.1c1.7-0.8,3.6-1.1,5.6-1.1
		c2,0,3.9,0.4,5.6,1.1c1.7,0.8,3.2,1.8,4.5,3.1c1.3,1.3,2.3,2.8,3,4.6c0.7,1.8,1.1,3.6,1.1,5.6c0,2-0.4,3.9-1.1,5.6
		c-0.7,1.8-1.8,3.3-3,4.6c-1.3,1.3-2.8,2.3-4.5,3.1C99.5,127.5,97.6,127.9,95.6,127.9z M95.6,123c1.3,0,2.6-0.3,3.7-0.8
		c1.1-0.5,2-1.2,2.8-2.1c0.8-0.9,1.4-1.9,1.8-3.1s0.6-2.4,0.6-3.7c0-1.3-0.2-2.6-0.6-3.7c-0.4-1.2-1-2.2-1.8-3.1
		c-0.8-0.9-1.7-1.6-2.8-2.1c-1.1-0.5-2.3-0.8-3.7-0.8c-1.4,0-2.6,0.3-3.7,0.8s-2,1.2-2.8,2.1c-0.8,0.9-1.4,1.9-1.8,3.1
		c-0.4,1.2-0.6,2.4-0.6,3.7c0,1.3,0.2,2.5,0.6,3.7c0.4,1.2,1,2.2,1.8,3.1c0.8,0.9,1.7,1.6,2.8,2.1C93,122.7,94.3,123,95.6,123z"/>
	<path fill="#4167B1" d="M114.6,99.7h5.2l13.3,19.5V99.7h5.1v27.4H133l-13.4-19.7v19.7h-5.1V99.7z"/>
</g>
<g>
	<path fill="#FFFFFF" d="M-20.9,59.6h9.1c1.7,0,3.2,0.3,4.4,0.8c1.2,0.5,2.2,1.2,2.9,2c0.7,0.8,1.3,1.7,1.6,2.7
		c0.3,1,0.5,1.9,0.5,2.8c0,1.7-0.4,3.3-1.1,4.6c-0.8,1.3-1.9,2.4-3.5,3.2L-0.7,87h-5.8l-5.5-10.8H-16V87h-5V59.6z M-11.8,71.9
		c1.3,0,2.3-0.4,3.1-1.2C-8,70-7.7,69.1-7.7,68c0-1.2-0.4-2.1-1.2-2.9c-0.8-0.7-1.8-1.1-3-1.1H-16v7.9H-11.8z"/>
	<path fill="#FFFFFF" d="M3.1,59.6h5.2V87H3.1V59.6z"/>
	<path fill="#FFFFFF" d="M11.4,59.6h5.8l7.3,20.9l7.3-20.9h5.4L26.9,87h-5.3L11.4,59.6z"/>
	<path fill="#FFFFFF" d="M40.2,59.6H58v4.6H45.4v6.5h9.2v4.6h-9.2v7.1h13.5V87H40.2V59.6z"/>
	<path fill="#FFFFFF" d="M63.5,59.6h9.1c1.7,0,3.2,0.3,4.4,0.8c1.2,0.5,2.2,1.2,2.9,2c0.7,0.8,1.3,1.7,1.6,2.7
		c0.3,1,0.5,1.9,0.5,2.8c0,1.7-0.4,3.3-1.1,4.6c-0.8,1.3-1.9,2.4-3.5,3.2L83.8,87H78l-5.5-10.8h-3.9V87h-5V59.6z M72.7,71.9
		c1.3,0,2.3-0.4,3.1-1.2c0.7-0.8,1.1-1.7,1.1-2.8c0-1.2-0.4-2.1-1.2-2.9c-0.8-0.7-1.8-1.1-3-1.1h-4.1v7.9H72.7z"/>
	<path fill="#FFFFFF" d="M97.1,79.3c0.3,0.4,0.7,0.8,1.2,1.2c0.5,0.4,1,0.8,1.5,1.2c0.6,0.4,1.2,0.7,1.9,0.9
		c0.7,0.2,1.5,0.4,2.4,0.4c1.6,0,2.8-0.4,3.6-1.1c0.8-0.7,1.2-1.6,1.2-2.7c0-0.6-0.1-1.1-0.3-1.5c-0.2-0.5-0.6-0.8-1.1-1.2
		c-0.5-0.3-1.2-0.7-2-0.9c-0.8-0.3-1.9-0.5-3.1-0.8c-1.3-0.2-2.3-0.6-3.3-1.2c-0.9-0.5-1.7-1.1-2.3-1.8c-0.6-0.7-1.1-1.5-1.4-2.4
		c-0.3-0.9-0.5-1.7-0.5-2.6c0-1,0.2-2,0.6-3c0.4-0.9,1-1.8,1.8-2.5c0.8-0.7,1.8-1.3,3-1.7c1.2-0.4,2.6-0.7,4.2-0.7
		c1.5,0,2.7,0.2,3.7,0.5s1.9,0.7,2.6,1.2c0.7,0.4,1.2,0.9,1.6,1.3c0.4,0.4,0.7,0.7,0.8,0.9l-3.4,3.2c-0.1-0.1-0.4-0.3-0.7-0.6
		c-0.3-0.3-0.7-0.6-1.1-0.8c-0.5-0.3-1-0.5-1.6-0.7c-0.6-0.2-1.3-0.3-2.1-0.3c-0.7,0-1.3,0.1-1.8,0.3c-0.5,0.2-1,0.4-1.3,0.7
		c-0.3,0.3-0.6,0.6-0.8,1c-0.2,0.4-0.2,0.7-0.2,1c0,0.5,0.1,0.9,0.3,1.3c0.2,0.4,0.5,0.7,0.9,1.1c0.4,0.3,1,0.6,1.7,0.9
		c0.7,0.3,1.7,0.5,2.8,0.7c1.1,0.2,2.1,0.5,3.1,1c1,0.4,1.9,1,2.6,1.7c0.8,0.7,1.4,1.5,1.8,2.5c0.5,1,0.7,2.2,0.7,3.6
		c0,1.2-0.2,2.3-0.7,3.3c-0.5,1-1.2,1.9-2.1,2.7s-1.9,1.4-3.1,1.8s-2.5,0.6-3.9,0.6c-1.4,0-2.6-0.2-3.7-0.5c-1.1-0.3-2.1-0.7-3-1.3
		c-0.9-0.5-1.7-1.1-2.3-1.7c-0.6-0.6-1.2-1.2-1.6-1.7L97.1,79.3z"/>
	<path fill="#FFFFFF" d="M119.4,59.6h17.8v4.6h-12.6v6.5h9.2v4.6h-9.2v7.1h13.5V87h-18.7V59.6z"/>
	<path fill="#FFFFFF" d="M142.8,59.6h17.8v4.6h-12.6v6.5h9.2v4.6h-9.2v7.1h13.5V87h-18.7V59.6z"/>
</g>
<g>
	<path fill="#4167B1" d="M140.5-40.9c2.2-1.8,4-4,5.4-6.5c1.4-2.5,2.1-5.6,2.1-9.2c0-2.1-0.2-4-0.7-5.7c-0.5-1.7-1.2-3.2-2.1-4.5
		s-2.1-2.2-3.5-2.9c-1.4-0.7-3.1-1-4.9-1c-2,0-3.7,0.4-5,1.2c-1.4,0.8-2.6,1.8-3.5,3.1c-0.9,1.3-1.7,2.7-2.3,4.3
		c-0.6,1.6-1.1,3.3-1.6,4.9c-0.5,2-1.1,4-1.8,6.1c-0.7,2-1.5,3.8-2.6,5.4c-1.1,1.6-2.5,2.9-4.2,3.9c-1.7,1-3.9,1.5-6.5,1.5
		c-1.8,0-3.6-0.4-5.2-1.1c-1.7-0.7-3.1-1.8-4.3-3.2c-1.2-1.4-2.2-3.1-2.9-5.2c-0.7-2-1.1-4.4-1.1-7c0-2.2,0.2-4.2,0.7-5.9
		c0.5-1.7,1.1-3.2,1.8-4.5c0.7-1.3,1.5-2.4,2.4-3.3c0.9-0.9,1.7-1.6,2.5-2.2l2.3,2.7c-0.6,0.5-1.3,1.1-2,1.8c-0.7,0.7-1.4,1.6-2,2.7
		c-0.6,1.1-1.1,2.3-1.5,3.8c-0.4,1.5-0.6,3.1-0.6,5.1c0,2.2,0.3,4,0.9,5.6c0.6,1.6,1.4,2.9,2.3,3.9c1,1,2,1.8,3.2,2.2
		c1.2,0.5,2.4,0.7,3.7,0.7c1.9,0,3.5-0.4,4.8-1.3s2.3-2,3.1-3.5c0.8-1.4,1.5-3,2-4.8c0.5-1.8,1-3.6,1.5-5.4c0.5-1.9,1.1-3.7,1.8-5.6
		c0.7-1.9,1.7-3.5,2.9-5c1.2-1.5,2.7-2.7,4.5-3.6c1.8-0.9,4.1-1.4,6.7-1.4c2.3,0,4.4,0.5,6.2,1.4c1.8,1,3.4,2.2,4.7,3.9
		c1.3,1.6,2.3,3.5,3,5.8c0.7,2.2,1,4.6,1,7.2c0,2.2-0.2,4.3-0.7,6.2c-0.5,1.9-1.1,3.7-1.9,5.2c-0.8,1.6-1.7,2.9-2.6,4.1
		c-1,1.2-2,2.2-3.1,2.9L140.5-40.9z"/>
</g>
<g>
	<path fill="#4167B1" d="M30.6,10.6c-0.7,1.9-1.3,3.7-1.8,5.6c-0.5,1.8-1,3.6-1.5,5.4c-0.5,1.8-1.2,3.4-2,4.8
		c-0.8,1.4-1.9,2.6-3.1,3.5s-2.8,1.3-4.8,1.3c-1.3,0-2.5-0.2-3.7-0.7c-1.2-0.5-2.3-1.2-3.2-2.2c-1-1-1.7-2.3-2.3-3.9
		c-0.6-1.6-0.9-3.4-0.9-5.6c0-1.9,0.2-3.6,0.6-5.1c0.4-1.5,0.9-2.7,1.5-3.8c0.6-1.1,1.3-2,2-2.7c0.7-0.7,1.4-1.4,2-1.8L11,2.6
		c-0.8,0.6-1.6,1.3-2.5,2.2c-0.9,0.9-1.6,2-2.4,3.3s-1.3,2.8-1.8,4.5s-0.7,3.7-0.7,5.9c0,2.6,0.4,4.9,1.1,7c0.7,2,1.7,3.8,2.9,5.2
		c1.2,1.4,2.7,2.5,4.3,3.2c1.7,0.7,3.4,1.1,5.2,1.1c2.7,0,4.8-0.5,6.5-1.5c1.7-1,3.1-2.3,4.2-3.9c1.1-1.6,2-3.4,2.6-5.4
		c0.4-1.2,0.8-2.4,1.1-3.6V8.3C31.2,9.1,30.9,9.8,30.6,10.6z"/>
	<path fill="#FFFFFF" d="M55.6,5.9C54.3,4.3,52.8,3,50.9,2c-1.8-1-3.9-1.4-6.2-1.4C42,0.6,39.8,1.1,38,2c-1.8,0.9-3.3,2.1-4.5,3.6
		c-0.7,0.8-1.3,1.8-1.8,2.8v12.3c0.2-0.8,0.5-1.6,0.7-2.4c0.5-1.6,1-3.3,1.6-4.9c0.6-1.6,1.3-3.1,2.3-4.3c0.9-1.3,2.1-2.3,3.5-3.1
		c1.4-0.8,3.1-1.2,5-1.2c1.9,0,3.5,0.3,4.9,1c1.4,0.7,2.6,1.7,3.5,2.9c0.9,1.2,1.6,2.7,2.1,4.5c0.5,1.7,0.7,3.6,0.7,5.7
		c0,3.6-0.7,6.7-2.1,9.2c-1.4,2.5-3.2,4.7-5.4,6.5l2.7,2.8c1.1-0.7,2.1-1.7,3.1-2.9c1-1.2,1.9-2.6,2.6-4.1c0.8-1.6,1.4-3.3,1.9-5.2
		c0.5-1.9,0.7-4,0.7-6.2c0-2.5-0.3-4.9-1-7.2C57.9,9.5,56.9,7.5,55.6,5.9z"/>
</g>
</svg>
