<?xml version="1.0" encoding="utf-8"?>
<!-- Generator: Adobe Illustrator 17.1.0, SVG Export Plug-In . SVG Version: 6.00 Build 0)  -->
<!DOCTYPE svg PUBLIC "-//W3C//DTD SVG 1.1//EN" "http://www.w3.org/Graphics/SVG/1.1/DTD/svg11.dtd">
<svg version="1.1" id="Layer_1" xmlns="http://www.w3.org/2000/svg" xmlns:xlink="http://www.w3.org/1999/xlink" x="0px" y="0px"
	 viewBox="0 0 65 65" enable-background="new 0 0 65 65" xml:space="preserve">
<path fill="#FFFFFF" d="M-97.6-58h-7.6v-5c0-1.9,1.2-2.3,2.1-2.3c0.9,0,5.4,0,5.4,0v-8.3l-7.4,0c-8.2,0-10.1,6.2-10.1,10.1v5.5h-4.8
	v8.5h4.8c0,10.9,0,24.1,0,24.1h10c0,0,0-13.3,0-24.1h6.8L-97.6-58z"/>
<g>
	<path fill="#FFFFFF" d="M-12.3-60.3h-31.1c-4.9,0-9,4-9,9v7.2c0,4.9,4,9,9,9h31.1c4.9,0,9-4,9-9v-7.2C-3.4-56.3-7.4-60.3-12.3-60.3
		z M-36.9-54.7h-2.9v14.4h-2.8v-14.4h-2.9v-2.4h8.6V-54.7z M-28.8-40.3h-2.5v-1.4c-0.5,0.5-0.9,0.9-1.4,1.1c-0.5,0.3-1,0.4-1.4,0.4
		c-0.6,0-1-0.2-1.3-0.6c-0.3-0.4-0.4-0.9-0.4-1.7v-10.4h2.5v9.5c0,0.3,0.1,0.5,0.2,0.6c0.1,0.1,0.3,0.2,0.5,0.2
		c0.2,0,0.4-0.1,0.7-0.3c0.3-0.2,0.5-0.4,0.8-0.7v-9.4h2.5V-40.3z M-19.8-42.9c0,0.9-0.2,1.6-0.6,2c-0.4,0.5-1,0.7-1.7,0.7
		c-0.5,0-0.9-0.1-1.3-0.3c-0.4-0.2-0.7-0.5-1.1-0.8v1h-2.5v-16.8h2.5v5.4c0.3-0.4,0.7-0.7,1.1-0.9c0.4-0.2,0.8-0.3,1.1-0.3
		c0.8,0,1.4,0.3,1.8,0.8c0.4,0.5,0.6,1.3,0.6,2.3V-42.9z M-11.2-46.2h-4.7v2.3c0,0.7,0.1,1.1,0.2,1.4c0.2,0.3,0.4,0.4,0.8,0.4
		c0.4,0,0.7-0.1,0.9-0.3c0.2-0.2,0.2-0.7,0.2-1.4v-0.6h2.6v0.6c0,1.3-0.3,2.2-0.9,2.9c-0.6,0.6-1.5,1-2.8,1c-1.1,0-2-0.3-2.6-1
		c-0.6-0.7-1-1.6-1-2.8v-5.6c0-1.1,0.4-2,1.1-2.6c0.7-0.7,1.6-1,2.7-1c1.1,0,2,0.3,2.6,0.9c0.6,0.6,0.9,1.5,0.9,2.7V-46.2z"/>
	<path fill="#FFFFFF" d="M-14.8-50.9c-0.4,0-0.7,0.1-0.8,0.3c-0.2,0.2-0.3,0.6-0.3,1.1v1.3h2.2v-1.3c0-0.5-0.1-0.9-0.3-1.1
		C-14.1-50.8-14.4-50.9-14.8-50.9z"/>
	<path fill="#FFFFFF" d="M-23.3-50.9c-0.2,0-0.4,0-0.5,0.1c-0.2,0.1-0.3,0.2-0.5,0.4v7.7c0.2,0.2,0.4,0.4,0.6,0.4
		c0.2,0.1,0.4,0.1,0.6,0.1c0.3,0,0.5-0.1,0.7-0.3c0.1-0.2,0.2-0.5,0.2-0.9v-6.4c0-0.4-0.1-0.7-0.3-1C-22.8-50.8-23-50.9-23.3-50.9z"
		/>
	<polygon fill="#FFFFFF" points="-39.4,-64.6 -36.3,-64.6 -36.3,-72.3 -32.6,-83.2 -35.8,-83.2 -37.7,-75.8 -37.9,-75.8 -40,-83.2 
		-43.1,-83.2 -39.4,-72 	"/>
	<path fill="#FFFFFF" d="M-28.3-64.3c1.3,0,2.3-0.3,3-1c0.7-0.7,1.1-1.6,1.1-2.8v-7.1c0-1-0.4-1.9-1.1-2.6c-0.7-0.7-1.7-1-2.8-1
		c-1.3,0-2.3,0.3-3,0.9c-0.8,0.6-1.1,1.5-1.1,2.5v7.1c0,1.2,0.4,2.1,1.1,2.8C-30.5-64.6-29.6-64.3-28.3-64.3z M-29.5-75.3
		c0-0.3,0.1-0.5,0.3-0.7c0.2-0.2,0.5-0.3,0.8-0.3c0.4,0,0.7,0.1,0.9,0.3c0.2,0.2,0.3,0.4,0.3,0.7v7.5c0,0.4-0.1,0.7-0.3,0.9
		c-0.2,0.2-0.5,0.3-0.9,0.3c-0.4,0-0.7-0.1-0.9-0.3c-0.2-0.2-0.3-0.5-0.3-0.9V-75.3z"/>
	<path fill="#FFFFFF" d="M-20-64.4c0.5,0,1.1-0.1,1.6-0.4c0.6-0.3,1.1-0.7,1.6-1.3v1.5h2.8v-13.7h-2.8v10.4
		c-0.3,0.3-0.5,0.5-0.9,0.7c-0.3,0.2-0.6,0.3-0.8,0.3c-0.3,0-0.5-0.1-0.6-0.2c-0.1-0.1-0.2-0.4-0.2-0.7v-10.5H-22v11.4
		c0,0.8,0.2,1.4,0.5,1.8C-21.2-64.6-20.7-64.4-20-64.4z"/>
</g>
<path fill="#FFFFFF" d="M65-70.5c-1.8,0.8-3.8,1.3-5.8,1.6c2.1-1.2,3.7-3.2,4.4-5.6c-2,1.2-4.1,2-6.4,2.5c-1.8-2-4.5-3.2-7.4-3.2
	c-5.6,0-10.1,4.5-10.1,10.1c0,0.8,0.1,1.6,0.3,2.3c-8.4-0.4-15.8-4.4-20.8-10.6c-0.9,1.5-1.4,3.2-1.4,5.1c0,3.5,1.8,6.6,4.5,8.4
	c-1.7-0.1-3.2-0.5-4.6-1.3c0,0,0,0.1,0,0.1c0,4.9,3.5,9,8.1,9.9c-0.8,0.2-1.7,0.4-2.7,0.4c-0.7,0-1.3-0.1-1.9-0.2c1.3,4,5,6.9,9.4,7
	c-3.5,2.7-7.8,4.3-12.6,4.3c-0.8,0-1.6,0-2.4-0.1c4.5,2.9,9.8,4.5,15.5,4.5C49.8-35.2,60-50.6,60-63.9c0-0.4,0-0.9,0-1.3
	C61.9-66.7,63.6-68.5,65-70.5z"/>
<path fill="#FFFFFF" d="M-144.7,20.7l2,2.6c0,0,4.1-3.3,5.5-1.6c1.4,1.6,6.7,21.4,8.4,25c1.5,3.2,5.8,7.4,10.4,4.4
	c4.6-3,20.1-16.2,22.9-31.8c2.8-15.6-18.6-12.3-20.9,1.3c5.7-3.4,8.7,1.4,5.8,6.8c-2.9,5.4-5.5,8.9-6.9,8.9c-1.4,0-2.4-3.6-4-9.9
	c-1.6-6.5-1.6-18.3-8.4-17C-136.3,10.6-144.7,20.7-144.7,20.7z"/>
<g>
	<path fill="#FFFFFF" d="M34.7,26.9c0.4-0.2,0.7-0.5,1-0.8c0.9-0.8,1.5-1.9,1.8-3c0.5-1.7-0.1-3.2-1.2-4c-0.6-0.4-1.4-0.7-2.2-0.7
		h-5l-0.2,0.7l-2,8.7h4.8C32.7,27.9,33.7,27.5,34.7,26.9z M31.7,21.8H34c0.1,0,0.2,0,0.2,0c0,0.1,0,0.2,0,0.4l0,0.1l0,0.1
		c-0.3,1.1-1.5,2.1-2.6,2.1h-0.5L31.7,21.8z"/>
	<path fill="#FFFFFF" d="M54.2,20.5c-1-1.2-2.2-2.2-3.6-3c-0.5-2-1.4-3.6-2.3-4.7C45.9,9.8,42,8,37.8,8H20.3h-2.7L17,10.6L9.2,45.1
		l-0.9,4.1h4.2h3.4l-0.8,3.6L14.1,57h4.2h10.3h2.7l0.6-2.7l1.9-8.8h4.6c8.9,0,15.9-5.5,17.8-14C57.5,26.1,55.8,22.5,54.2,20.5z
		 M16.6,45.9h-4.1l7.8-34.5h17.5c3.2,0,6.8,1.5,8.6,4.6c0.6,1.1,1,2.3,1.1,3.8c0.1,1,0,2.1-0.3,3.4c-0.6,2.8-1.9,5.1-3.6,6.9
		c-2.7,2.8-6.4,4.3-10.6,4.4c-0.1,0-0.2,0-0.3,0h-7.3l-2.5,11.4h-2.7H16.6z M53,30.9c-1.6,7.1-7.4,11.3-14.5,11.3h-7.3l-2.5,11.4
		H18.4l1-4.3h3.4h2.7l0.6-2.7l1.9-8.8h4.6c8.9,0,15.9-5.5,17.8-14c0.2-0.7,0.3-1.4,0.3-2.1C52.8,23.7,53.9,26.7,53,30.9z"/>
</g>
</svg>
