<?xml version="1.0" encoding="utf-8"?>
<!-- Generator: Adobe Illustrator 17.1.0, SVG Export Plug-In . SVG Version: 6.00 Build 0)  -->
<!DOCTYPE svg PUBLIC "-//W3C//DTD SVG 1.1//EN" "http://www.w3.org/Graphics/SVG/1.1/DTD/svg11.dtd">
<svg version="1.1" id="Layer_1" xmlns="http://www.w3.org/2000/svg" xmlns:xlink="http://www.w3.org/1999/xlink" x="0px" y="0px"
	 viewBox="0 0 171 37" enable-background="new 0 0 171 37" xml:space="preserve">
<g>
	<path fill="#4167B1" d="M8.1,24c0.3,0.4,0.7,0.8,1.2,1.2c0.5,0.4,1,0.8,1.5,1.2c0.6,0.4,1.2,0.7,1.9,0.9c0.7,0.2,1.5,0.4,2.4,0.4
		c1.6,0,2.8-0.4,3.6-1.1c0.8-0.7,1.2-1.6,1.2-2.7c0-0.6-0.1-1.1-0.3-1.5c-0.2-0.5-0.6-0.8-1.1-1.2c-0.5-0.3-1.2-0.7-2-0.9
		c-0.8-0.3-1.9-0.5-3.1-0.8c-1.3-0.2-2.3-0.6-3.3-1.2c-0.9-0.5-1.7-1.1-2.3-1.8c-0.6-0.7-1.1-1.5-1.4-2.4c-0.3-0.9-0.5-1.7-0.5-2.6
		c0-1,0.2-2,0.6-3c0.4-0.9,1-1.8,1.8-2.5c0.8-0.7,1.8-1.3,3-1.7c1.2-0.4,2.6-0.7,4.2-0.7c1.5,0,2.7,0.2,3.7,0.5
		c1,0.3,1.9,0.7,2.6,1.2c0.7,0.4,1.2,0.9,1.6,1.3c0.4,0.4,0.7,0.7,0.8,0.9l-3.4,3.2c-0.1-0.1-0.4-0.3-0.7-0.6s-0.7-0.6-1.1-0.8
		c-0.5-0.3-1-0.5-1.6-0.7c-0.6-0.2-1.3-0.3-2.1-0.3c-0.7,0-1.3,0.1-1.8,0.3c-0.5,0.2-1,0.4-1.3,0.7c-0.3,0.3-0.6,0.6-0.8,1
		c-0.2,0.4-0.2,0.7-0.2,1c0,0.5,0.1,0.9,0.3,1.3c0.2,0.4,0.5,0.7,0.9,1.1c0.4,0.3,1,0.6,1.7,0.9c0.7,0.3,1.7,0.5,2.8,0.7
		c1.1,0.2,2.1,0.5,3.1,1c1,0.4,1.9,1,2.6,1.7c0.8,0.7,1.4,1.5,1.8,2.5c0.5,1,0.7,2.2,0.7,3.6c0,1.2-0.2,2.3-0.7,3.3
		c-0.5,1-1.2,1.9-2.1,2.7c-0.9,0.8-1.9,1.4-3.1,1.8c-1.2,0.4-2.5,0.6-3.9,0.6c-1.4,0-2.6-0.2-3.7-0.5c-1.1-0.3-2.1-0.7-3-1.3
		c-0.9-0.5-1.7-1.1-2.3-1.7c-0.6-0.6-1.2-1.2-1.6-1.7L8.1,24z"/>
	<path fill="#4167B1" d="M30.5,4.4h5.2v11h13.6v-11h5.2v27.4h-5.2V20H35.7v11.8h-5.2V4.4z"/>
	<path fill="#4167B1" d="M67.9,4.4h5.3l10.4,27.4h-5.8l-2.4-6.9H65.3L63,31.8h-5.4L67.9,4.4z M74.1,20.5L70.4,9.9l-3.7,10.6H74.1z"
		/>
	<path fill="#4167B1" d="M86.8,4.4h9.1c1.7,0,3.2,0.3,4.4,0.8c1.2,0.5,2.2,1.2,2.9,2c0.7,0.8,1.3,1.7,1.6,2.7c0.3,1,0.5,1.9,0.5,2.8
		c0,1.7-0.4,3.3-1.1,4.6c-0.8,1.3-1.9,2.4-3.5,3.2l6.3,11.5h-5.8L95.6,21h-3.9v10.8h-5V4.4z M95.9,16.7c1.3,0,2.3-0.4,3.1-1.2
		c0.7-0.8,1.1-1.7,1.1-2.8c0-1.2-0.4-2.1-1.2-2.9c-0.8-0.7-1.8-1.1-3-1.1h-4.1v7.9H95.9z"/>
	<path fill="#4167B1" d="M123.6,32.5c-2,0-3.9-0.4-5.6-1.1c-1.7-0.8-3.2-1.8-4.5-3.1c-1.3-1.3-2.3-2.8-3-4.6
		c-0.7-1.8-1.1-3.6-1.1-5.6c0-2,0.4-3.9,1.1-5.6c0.7-1.8,1.7-3.3,3-4.6c1.3-1.3,2.8-2.3,4.5-3.1c1.7-0.8,3.6-1.1,5.6-1.1
		c2,0,3.9,0.4,5.6,1.1c1.7,0.8,3.2,1.8,4.5,3.1c1.3,1.3,2.3,2.8,3,4.6c0.7,1.8,1.1,3.6,1.1,5.6c0,2-0.4,3.9-1.1,5.6
		c-0.7,1.8-1.8,3.3-3,4.6c-1.3,1.3-2.8,2.3-4.5,3.1C127.5,32.1,125.6,32.5,123.6,32.5z M123.6,27.6c1.3,0,2.6-0.3,3.7-0.8
		c1.1-0.5,2-1.2,2.8-2.1c0.8-0.9,1.4-1.9,1.8-3.1s0.6-2.4,0.6-3.7c0-1.3-0.2-2.6-0.6-3.7c-0.4-1.2-1-2.2-1.8-3.1
		c-0.8-0.9-1.7-1.6-2.8-2.1c-1.1-0.5-2.3-0.8-3.7-0.8c-1.4,0-2.6,0.3-3.7,0.8s-2,1.2-2.8,2.1c-0.8,0.9-1.4,1.9-1.8,3.1
		c-0.4,1.2-0.6,2.4-0.6,3.7c0,1.3,0.2,2.5,0.6,3.7c0.4,1.2,1,2.2,1.8,3.1c0.8,0.9,1.7,1.6,2.8,2.1C121,27.3,122.2,27.6,123.6,27.6z"
		/>
	<path fill="#4167B1" d="M142.6,4.4h5.2L161,23.8V4.4h5.1v27.4H161L147.6,12v19.7h-5.1V4.4z"/>
</g>
</svg>
