<?xml version="1.0" encoding="utf-8"?>
<!-- Generator: Adobe Illustrator 17.1.0, SVG Export Plug-In . SVG Version: 6.00 Build 0)  -->
<!DOCTYPE svg PUBLIC "-//W3C//DTD SVG 1.1//EN" "http://www.w3.org/Graphics/SVG/1.1/DTD/svg11.dtd">
<svg version="1.1" id="Layer_1" xmlns="http://www.w3.org/2000/svg" xmlns:xlink="http://www.w3.org/1999/xlink" x="0px" y="0px"
	 viewBox="0 0 34 24" enable-background="new 0 0 34 24" xml:space="preserve">
<g>
	<path fill="#4167B1" d="M-34.4,113.4c0.3,0.4,0.7,0.8,1.2,1.2c0.5,0.4,1,0.8,1.5,1.2c0.6,0.4,1.2,0.7,1.9,0.9
		c0.7,0.2,1.5,0.4,2.4,0.4c1.6,0,2.8-0.4,3.6-1.1c0.8-0.7,1.2-1.6,1.2-2.7c0-0.6-0.1-1.1-0.3-1.5c-0.2-0.5-0.6-0.8-1.1-1.2
		c-0.5-0.3-1.2-0.7-2-0.9c-0.8-0.3-1.9-0.5-3.1-0.8c-1.3-0.2-2.3-0.6-3.3-1.2c-0.9-0.5-1.7-1.1-2.3-1.8c-0.6-0.7-1.1-1.5-1.4-2.4
		c-0.3-0.9-0.5-1.7-0.5-2.6c0-1,0.2-2,0.6-3c0.4-0.9,1-1.8,1.8-2.5c0.8-0.7,1.8-1.3,3-1.7c1.2-0.4,2.6-0.7,4.2-0.7
		c1.5,0,2.7,0.2,3.7,0.5c1,0.3,1.9,0.7,2.6,1.2c0.7,0.4,1.2,0.9,1.6,1.3c0.4,0.4,0.7,0.7,0.8,0.9l-3.4,3.2c-0.1-0.1-0.4-0.3-0.7-0.6
		s-0.7-0.6-1.1-0.8c-0.5-0.3-1-0.5-1.6-0.7c-0.6-0.2-1.3-0.3-2.1-0.3c-0.7,0-1.3,0.1-1.8,0.3c-0.5,0.2-1,0.4-1.3,0.7
		c-0.3,0.3-0.6,0.6-0.8,1c-0.2,0.4-0.2,0.7-0.2,1c0,0.5,0.1,0.9,0.3,1.3c0.2,0.4,0.5,0.7,0.9,1.1c0.4,0.3,1,0.6,1.7,0.9
		c0.7,0.3,1.7,0.5,2.8,0.7c1.1,0.2,2.1,0.5,3.1,1c1,0.4,1.9,1,2.6,1.7c0.8,0.7,1.4,1.5,1.8,2.5c0.5,1,0.7,2.2,0.7,3.6
		c0,1.2-0.2,2.3-0.7,3.3c-0.5,1-1.2,1.9-2.1,2.7c-0.9,0.8-1.9,1.4-3.1,1.8c-1.2,0.4-2.5,0.6-3.9,0.6c-1.4,0-2.6-0.2-3.7-0.5
		c-1.1-0.3-2.1-0.7-3-1.3c-0.9-0.5-1.7-1.1-2.3-1.7c-0.6-0.6-1.2-1.2-1.6-1.7L-34.4,113.4z"/>
	<path fill="#4167B1" d="M-12.1,93.7h5.2v11H6.7v-11h5.2v27.4H6.7v-11.8H-6.9v11.8h-5.2V93.7z"/>
	<path fill="#4167B1" d="M25.4,93.7h5.3l10.4,27.4h-5.8l-2.4-6.9H22.8l-2.4,6.9H15L25.4,93.7z M31.5,109.9l-3.6-10.6l-3.7,10.6H31.5
		z"/>
	<path fill="#4167B1" d="M44.2,93.7h9.1c1.7,0,3.2,0.3,4.4,0.8c1.2,0.5,2.2,1.2,2.9,2c0.7,0.8,1.3,1.7,1.6,2.7
		c0.3,1,0.5,1.9,0.5,2.8c0,1.7-0.4,3.3-1.1,4.6c-0.8,1.3-1.9,2.4-3.5,3.2l6.3,11.5h-5.8l-5.5-10.8h-3.9v10.8h-5V93.7z M53.3,106.1
		c1.3,0,2.3-0.4,3.1-1.2c0.7-0.8,1.1-1.7,1.1-2.8c0-1.2-0.4-2.1-1.2-2.9c-0.8-0.7-1.8-1.1-3-1.1h-4.1v7.9H53.3z"/>
	<path fill="#4167B1" d="M81,121.9c-2,0-3.9-0.4-5.6-1.1c-1.7-0.8-3.2-1.8-4.5-3.1c-1.3-1.3-2.3-2.8-3-4.6c-0.7-1.8-1.1-3.6-1.1-5.6
		c0-2,0.4-3.9,1.1-5.6c0.7-1.8,1.7-3.3,3-4.6c1.3-1.3,2.8-2.3,4.5-3.1C77.2,93.4,79,93,81,93c2,0,3.9,0.4,5.6,1.1
		c1.7,0.8,3.2,1.8,4.5,3.1c1.3,1.3,2.3,2.8,3,4.6c0.7,1.8,1.1,3.6,1.1,5.6c0,2-0.4,3.9-1.1,5.6c-0.7,1.8-1.8,3.3-3,4.6
		c-1.3,1.3-2.8,2.3-4.5,3.1C84.9,121.5,83,121.9,81,121.9z M81,117c1.3,0,2.6-0.3,3.7-0.8c1.1-0.5,2-1.2,2.8-2.1
		c0.8-0.9,1.4-1.9,1.8-3.1s0.6-2.4,0.6-3.7c0-1.3-0.2-2.6-0.6-3.7c-0.4-1.2-1-2.2-1.8-3.1c-0.8-0.9-1.7-1.6-2.8-2.1
		c-1.1-0.5-2.3-0.8-3.7-0.8c-1.4,0-2.6,0.3-3.7,0.8s-2,1.2-2.8,2.1c-0.8,0.9-1.4,1.9-1.8,3.1c-0.4,1.2-0.6,2.4-0.6,3.7
		c0,1.3,0.2,2.5,0.6,3.7c0.4,1.2,1,2.2,1.8,3.1c0.8,0.9,1.7,1.6,2.8,2.1C78.4,116.7,79.7,117,81,117z"/>
	<path fill="#4167B1" d="M100,93.7h5.2l13.3,19.5V93.7h5.1v27.4h-5.1L105,101.4v19.7H100V93.7z"/>
</g>
<g>
	<path fill="#FFFFFF" d="M-35.5,53.6h9.1c1.7,0,3.2,0.3,4.4,0.8c1.2,0.5,2.2,1.2,2.9,2c0.7,0.8,1.3,1.7,1.6,2.7
		c0.3,1,0.5,1.9,0.5,2.8c0,1.7-0.4,3.3-1.1,4.6c-0.8,1.3-1.9,2.4-3.5,3.2l6.3,11.5h-5.8l-5.5-10.8h-3.9V81h-5V53.6z M-26.4,65.9
		c1.3,0,2.3-0.4,3.1-1.2c0.7-0.8,1.1-1.7,1.1-2.8c0-1.2-0.4-2.1-1.2-2.9c-0.8-0.7-1.8-1.1-3-1.1h-4.1v7.9H-26.4z"/>
	<path fill="#FFFFFF" d="M-11.5,53.6h5.2V81h-5.2V53.6z"/>
	<path fill="#FFFFFF" d="M-3.2,53.6h5.8l7.3,20.9l7.3-20.9h5.4L12.3,81H7L-3.2,53.6z"/>
	<path fill="#FFFFFF" d="M25.6,53.6h17.8v4.6H30.8v6.5H40v4.6h-9.2v7.1h13.5V81H25.6V53.6z"/>
	<path fill="#FFFFFF" d="M48.9,53.6H58c1.7,0,3.2,0.3,4.4,0.8c1.2,0.5,2.2,1.2,2.9,2c0.7,0.8,1.3,1.7,1.6,2.7c0.3,1,0.5,1.9,0.5,2.8
		c0,1.7-0.4,3.3-1.1,4.6c-0.8,1.3-1.9,2.4-3.5,3.2L69.2,81h-5.8l-5.5-10.8h-3.9V81h-5V53.6z M58.1,65.9c1.3,0,2.3-0.4,3.1-1.2
		c0.7-0.8,1.1-1.7,1.1-2.8c0-1.2-0.4-2.1-1.2-2.9c-0.8-0.7-1.8-1.1-3-1.1h-4.1v7.9H58.1z"/>
	<path fill="#FFFFFF" d="M82.5,73.3c0.3,0.4,0.7,0.8,1.2,1.2c0.5,0.4,1,0.8,1.5,1.2c0.6,0.4,1.2,0.7,1.9,0.9
		c0.7,0.2,1.5,0.4,2.4,0.4c1.6,0,2.8-0.4,3.6-1.1c0.8-0.7,1.2-1.6,1.2-2.7c0-0.6-0.1-1.1-0.3-1.5c-0.2-0.5-0.6-0.8-1.1-1.2
		c-0.5-0.3-1.2-0.7-2-0.9c-0.8-0.3-1.9-0.5-3.1-0.8c-1.3-0.2-2.3-0.6-3.3-1.2c-0.9-0.5-1.7-1.1-2.3-1.8c-0.6-0.7-1.1-1.5-1.4-2.4
		c-0.3-0.9-0.5-1.7-0.5-2.6c0-1,0.2-2,0.6-3c0.4-0.9,1-1.8,1.8-2.5c0.8-0.7,1.8-1.3,3-1.7c1.2-0.4,2.6-0.7,4.2-0.7
		c1.5,0,2.7,0.2,3.7,0.5s1.9,0.7,2.6,1.2c0.7,0.4,1.2,0.9,1.6,1.3c0.4,0.4,0.7,0.7,0.8,0.9l-3.4,3.2c-0.1-0.1-0.4-0.3-0.7-0.6
		c-0.3-0.3-0.7-0.6-1.1-0.8c-0.5-0.3-1-0.5-1.6-0.7c-0.6-0.2-1.3-0.3-2.1-0.3c-0.7,0-1.3,0.1-1.8,0.3c-0.5,0.2-1,0.4-1.3,0.7
		c-0.3,0.3-0.6,0.6-0.8,1c-0.2,0.4-0.2,0.7-0.2,1c0,0.5,0.1,0.9,0.3,1.3c0.2,0.4,0.5,0.7,0.9,1.1c0.4,0.3,1,0.6,1.7,0.9
		c0.7,0.3,1.7,0.5,2.8,0.7c1.1,0.2,2.1,0.5,3.1,1c1,0.4,1.9,1,2.6,1.7c0.8,0.7,1.4,1.5,1.8,2.5c0.5,1,0.7,2.2,0.7,3.6
		c0,1.2-0.2,2.3-0.7,3.3c-0.5,1-1.2,1.9-2.1,2.7s-1.9,1.4-3.1,1.8s-2.5,0.6-3.9,0.6c-1.4,0-2.6-0.2-3.7-0.5c-1.1-0.3-2.1-0.7-3-1.3
		c-0.9-0.5-1.7-1.1-2.3-1.7c-0.6-0.6-1.2-1.2-1.6-1.7L82.5,73.3z"/>
	<path fill="#FFFFFF" d="M104.8,53.6h17.8v4.6H110v6.5h9.2v4.6H110v7.1h13.5V81h-18.7V53.6z"/>
	<path fill="#FFFFFF" d="M128.2,53.6h17.8v4.6h-12.6v6.5h9.2v4.6h-9.2v7.1h13.5V81h-18.7V53.6z"/>
</g>
<g>
	<path fill="#4167B1" d="M125.9-46.9c2.2-1.8,4-4,5.4-6.5c1.4-2.5,2.1-5.6,2.1-9.2c0-2.1-0.2-4-0.7-5.7c-0.5-1.7-1.2-3.2-2.1-4.5
		s-2.1-2.2-3.5-2.9c-1.4-0.7-3.1-1-4.9-1c-2,0-3.7,0.4-5,1.2c-1.4,0.8-2.6,1.8-3.5,3.1c-0.9,1.3-1.7,2.7-2.3,4.3
		c-0.6,1.6-1.1,3.3-1.6,4.9c-0.5,2-1.1,4-1.8,6.1c-0.7,2-1.5,3.8-2.6,5.4c-1.1,1.6-2.5,2.9-4.2,3.9c-1.7,1-3.9,1.5-6.5,1.5
		c-1.8,0-3.6-0.4-5.2-1.1c-1.7-0.7-3.1-1.8-4.3-3.2c-1.2-1.4-2.2-3.1-2.9-5.2c-0.7-2-1.1-4.4-1.1-7c0-2.2,0.2-4.2,0.7-5.9
		s1.1-3.2,1.8-4.5c0.7-1.3,1.5-2.4,2.4-3.3c0.9-0.9,1.7-1.6,2.5-2.2l2.3,2.7c-0.6,0.5-1.3,1.1-2,1.8c-0.7,0.7-1.4,1.6-2,2.7
		c-0.6,1.1-1.1,2.3-1.5,3.8c-0.4,1.5-0.6,3.1-0.6,5.1c0,2.2,0.3,4,0.9,5.6c0.6,1.6,1.4,2.9,2.3,3.9c1,1,2,1.8,3.2,2.2
		c1.2,0.5,2.4,0.7,3.7,0.7c1.9,0,3.5-0.4,4.8-1.3s2.3-2,3.1-3.5c0.8-1.4,1.5-3,2-4.8c0.5-1.8,1-3.6,1.5-5.4c0.5-1.9,1.1-3.7,1.8-5.6
		c0.7-1.9,1.7-3.5,2.9-5c1.2-1.5,2.7-2.7,4.5-3.6c1.8-0.9,4.1-1.4,6.7-1.4c2.3,0,4.4,0.5,6.2,1.4c1.8,1,3.4,2.2,4.7,3.9
		c1.3,1.6,2.3,3.5,3,5.8c0.7,2.2,1,4.6,1,7.2c0,2.2-0.2,4.3-0.7,6.2c-0.5,1.9-1.1,3.7-1.9,5.2c-0.8,1.6-1.7,2.9-2.6,4.1
		c-1,1.2-2,2.2-3.1,2.9L125.9-46.9z"/>
</g>
<g>
	<path fill="#4167B1" d="M18-52.5c-0.7,1.9-1.3,3.7-1.8,5.6c-0.5,1.8-1,3.6-1.5,5.4c-0.5,1.8-1.2,3.4-2,4.8
		c-0.8,1.4-1.9,2.6-3.1,3.5S6.6-32,4.7-32c-1.3,0-2.5-0.2-3.7-0.7c-1.2-0.5-2.3-1.2-3.2-2.2c-1-1-1.7-2.3-2.3-3.9
		c-0.6-1.6-0.9-3.4-0.9-5.6c0-1.9,0.2-3.6,0.6-5.1c0.4-1.5,0.9-2.7,1.5-3.8c0.6-1.1,1.3-2,2-2.7c0.7-0.7,1.4-1.4,2-1.8l-2.3-2.7
		c-0.8,0.6-1.6,1.3-2.5,2.2c-0.9,0.9-1.6,2-2.4,3.3s-1.3,2.8-1.8,4.5S-9-46.8-9-44.6c0,2.6,0.4,4.9,1.1,7c0.7,2,1.7,3.8,2.9,5.2
		c1.2,1.4,2.7,2.5,4.3,3.2c1.7,0.7,3.4,1.1,5.2,1.1c2.7,0,4.8-0.5,6.5-1.5c1.7-1,3.1-2.3,4.2-3.9c1.1-1.6,2-3.4,2.6-5.4
		c0.4-1.2,0.8-2.4,1.1-3.6v-12.3C18.6-54,18.3-53.3,18-52.5z"/>
	<path fill="#FFFFFF" d="M43-57.2c-1.3-1.6-2.8-2.9-4.7-3.9c-1.8-1-3.9-1.4-6.2-1.4c-2.7,0-4.9,0.5-6.7,1.4
		c-1.8,0.9-3.3,2.1-4.5,3.6c-0.7,0.8-1.3,1.8-1.8,2.8v12.3c0.2-0.8,0.5-1.6,0.7-2.4c0.5-1.6,1-3.3,1.6-4.9c0.6-1.6,1.3-3.1,2.3-4.3
		c0.9-1.3,2.1-2.3,3.5-3.1c1.4-0.8,3.1-1.2,5-1.2c1.9,0,3.5,0.3,4.9,1c1.4,0.7,2.6,1.7,3.5,2.9c0.9,1.2,1.6,2.7,2.1,4.5
		c0.5,1.7,0.7,3.6,0.7,5.7c0,3.6-0.7,6.7-2.1,9.2c-1.4,2.5-3.2,4.7-5.4,6.5l2.7,2.8c1.1-0.7,2.1-1.7,3.1-2.9c1-1.2,1.9-2.6,2.6-4.1
		c0.8-1.6,1.4-3.3,1.9-5.2c0.5-1.9,0.7-4,0.7-6.2c0-2.5-0.3-4.9-1-7.2C45.3-53.6,44.3-55.6,43-57.2z"/>
</g>
<polygon fill="#FFFFFF" points="29.5,3.2 17,15.7 4.5,3.2 1.9,5.7 17,20.8 32.1,5.7 "/>
</svg>
