<?xml version="1.0" encoding="utf-8"?>
<!-- Generator: Adobe Illustrator 17.1.0, SVG Export Plug-In . SVG Version: 6.00 Build 0)  -->
<!DOCTYPE svg PUBLIC "-//W3C//DTD SVG 1.1//EN" "http://www.w3.org/Graphics/SVG/1.1/DTD/svg11.dtd">
<svg version="1.1" id="Layer_1" xmlns="http://www.w3.org/2000/svg" xmlns:xlink="http://www.w3.org/1999/xlink" x="0px" y="0px"
	 viewBox="0 0 226.5 28.6" enable-background="new 0 0 226.5 28.6" xml:space="preserve">
<g>
	<path fill="#4167B1" d="M-34.4,118c0.3,0.4,0.7,0.8,1.2,1.2c0.5,0.4,1,0.8,1.5,1.2c0.6,0.4,1.2,0.7,1.9,0.9
		c0.7,0.2,1.5,0.4,2.4,0.4c1.6,0,2.8-0.4,3.6-1.1c0.8-0.7,1.2-1.6,1.2-2.7c0-0.6-0.1-1.1-0.3-1.5c-0.2-0.5-0.6-0.8-1.1-1.2
		c-0.5-0.3-1.2-0.7-2-0.9c-0.8-0.3-1.9-0.5-3.1-0.8c-1.3-0.2-2.3-0.6-3.3-1.2c-0.9-0.5-1.7-1.1-2.3-1.8c-0.6-0.7-1.1-1.5-1.4-2.4
		c-0.3-0.9-0.5-1.7-0.5-2.6c0-1,0.2-2,0.6-3c0.4-0.9,1-1.8,1.8-2.5c0.8-0.7,1.8-1.3,3-1.7c1.2-0.4,2.6-0.7,4.2-0.7
		c1.5,0,2.7,0.2,3.7,0.5c1,0.3,1.9,0.7,2.6,1.2c0.7,0.4,1.2,0.9,1.6,1.3c0.4,0.4,0.7,0.7,0.8,0.9l-3.4,3.2c-0.1-0.1-0.4-0.3-0.7-0.6
		s-0.7-0.6-1.1-0.8c-0.5-0.3-1-0.5-1.6-0.7c-0.6-0.2-1.3-0.3-2.1-0.3c-0.7,0-1.3,0.1-1.8,0.3c-0.5,0.2-1,0.4-1.3,0.7
		c-0.3,0.3-0.6,0.6-0.8,1c-0.2,0.4-0.2,0.7-0.2,1c0,0.5,0.1,0.9,0.3,1.3c0.2,0.4,0.5,0.7,0.9,1.1c0.4,0.3,1,0.6,1.7,0.9
		c0.7,0.3,1.7,0.5,2.8,0.7c1.1,0.2,2.1,0.5,3.1,1c1,0.4,1.9,1,2.6,1.7c0.8,0.7,1.4,1.5,1.8,2.5c0.5,1,0.7,2.2,0.7,3.6
		c0,1.2-0.2,2.3-0.7,3.3c-0.5,1-1.2,1.9-2.1,2.7c-0.9,0.8-1.9,1.4-3.1,1.8c-1.2,0.4-2.5,0.6-3.9,0.6c-1.4,0-2.6-0.2-3.7-0.5
		c-1.1-0.3-2.1-0.7-3-1.3c-0.9-0.5-1.7-1.1-2.3-1.7c-0.6-0.6-1.2-1.2-1.6-1.7L-34.4,118z"/>
	<path fill="#4167B1" d="M-12.1,98.3h5.2v11H6.7v-11h5.2v27.4H6.7v-11.8H-6.9v11.8h-5.2V98.3z"/>
	<path fill="#4167B1" d="M25.4,98.3h5.3l10.4,27.4h-5.8l-2.4-6.9H22.8l-2.4,6.9H15L25.4,98.3z M31.5,114.5l-3.6-10.6l-3.7,10.6H31.5
		z"/>
	<path fill="#4167B1" d="M44.2,98.3h9.1c1.7,0,3.2,0.3,4.4,0.8c1.2,0.5,2.2,1.2,2.9,2c0.7,0.8,1.3,1.7,1.6,2.7
		c0.3,1,0.5,1.9,0.5,2.8c0,1.7-0.4,3.3-1.1,4.6c-0.8,1.3-1.9,2.4-3.5,3.2l6.3,11.5h-5.8l-5.5-10.8h-3.9v10.8h-5V98.3z M53.3,110.7
		c1.3,0,2.3-0.4,3.1-1.2c0.7-0.8,1.1-1.7,1.1-2.8c0-1.2-0.4-2.1-1.2-2.9c-0.8-0.7-1.8-1.1-3-1.1h-4.1v7.9H53.3z"/>
	<path fill="#4167B1" d="M81,126.5c-2,0-3.9-0.4-5.6-1.1c-1.7-0.8-3.2-1.8-4.5-3.1c-1.3-1.3-2.3-2.8-3-4.6c-0.7-1.8-1.1-3.6-1.1-5.6
		c0-2,0.4-3.9,1.1-5.6c0.7-1.8,1.7-3.3,3-4.6c1.3-1.3,2.8-2.3,4.5-3.1c1.7-0.8,3.6-1.1,5.6-1.1c2,0,3.9,0.4,5.6,1.1
		c1.7,0.8,3.2,1.8,4.5,3.1c1.3,1.3,2.3,2.8,3,4.6c0.7,1.8,1.1,3.6,1.1,5.6c0,2-0.4,3.9-1.1,5.6c-0.7,1.8-1.8,3.3-3,4.6
		c-1.3,1.3-2.8,2.3-4.5,3.1C84.9,126.1,83,126.5,81,126.5z M81,121.6c1.3,0,2.6-0.3,3.7-0.8c1.1-0.5,2-1.2,2.8-2.1
		c0.8-0.9,1.4-1.9,1.8-3.1s0.6-2.4,0.6-3.7c0-1.3-0.2-2.6-0.6-3.7c-0.4-1.2-1-2.2-1.8-3.1c-0.8-0.9-1.7-1.6-2.8-2.1
		c-1.1-0.5-2.3-0.8-3.7-0.8c-1.4,0-2.6,0.3-3.7,0.8s-2,1.2-2.8,2.1c-0.8,0.9-1.4,1.9-1.8,3.1c-0.4,1.2-0.6,2.4-0.6,3.7
		c0,1.3,0.2,2.5,0.6,3.7c0.4,1.2,1,2.2,1.8,3.1c0.8,0.9,1.7,1.6,2.8,2.1C78.4,121.3,79.7,121.6,81,121.6z"/>
	<path fill="#4167B1" d="M100,98.3h5.2l13.3,19.5V98.3h5.1v27.4h-5.1L105,106v19.7H100V98.3z"/>
</g>
<g>
	<path fill="#FFFFFF" d="M-35.5,58.2h9.1c1.7,0,3.2,0.3,4.4,0.8c1.2,0.5,2.2,1.2,2.9,2c0.7,0.8,1.3,1.7,1.6,2.7
		c0.3,1,0.5,1.9,0.5,2.8c0,1.7-0.4,3.3-1.1,4.6c-0.8,1.3-1.9,2.4-3.5,3.2l6.3,11.5h-5.8l-5.5-10.8h-3.9v10.8h-5V58.2z M-26.4,70.5
		c1.3,0,2.3-0.4,3.1-1.2c0.7-0.8,1.1-1.7,1.1-2.8c0-1.2-0.4-2.1-1.2-2.9c-0.8-0.7-1.8-1.1-3-1.1h-4.1v7.9H-26.4z"/>
	<path fill="#FFFFFF" d="M-11.5,58.2h5.2v27.4h-5.2V58.2z"/>
	<path fill="#FFFFFF" d="M-3.2,58.2h5.8l7.3,20.9l7.3-20.9h5.4L12.3,85.6H7L-3.2,58.2z"/>
	<path fill="#FFFFFF" d="M25.6,58.2h17.8v4.6H30.8v6.5H40v4.6h-9.2V81h13.5v4.6H25.6V58.2z"/>
	<path fill="#FFFFFF" d="M48.9,58.2H58c1.7,0,3.2,0.3,4.4,0.8c1.2,0.5,2.2,1.2,2.9,2c0.7,0.8,1.3,1.7,1.6,2.7c0.3,1,0.5,1.9,0.5,2.8
		c0,1.7-0.4,3.3-1.1,4.6c-0.8,1.3-1.9,2.4-3.5,3.2l6.3,11.5h-5.8l-5.5-10.8h-3.9v10.8h-5V58.2z M58.1,70.5c1.3,0,2.3-0.4,3.1-1.2
		c0.7-0.8,1.1-1.7,1.1-2.8c0-1.2-0.4-2.1-1.2-2.9c-0.8-0.7-1.8-1.1-3-1.1h-4.1v7.9H58.1z"/>
	<path fill="#FFFFFF" d="M82.5,77.9c0.3,0.4,0.7,0.8,1.2,1.2c0.5,0.4,1,0.8,1.5,1.2c0.6,0.4,1.2,0.7,1.9,0.9
		c0.7,0.2,1.5,0.4,2.4,0.4c1.6,0,2.8-0.4,3.6-1.1c0.8-0.7,1.2-1.6,1.2-2.7c0-0.6-0.1-1.1-0.3-1.5c-0.2-0.5-0.6-0.8-1.1-1.2
		c-0.5-0.3-1.2-0.7-2-0.9c-0.8-0.3-1.9-0.5-3.1-0.8c-1.3-0.2-2.3-0.6-3.3-1.2c-0.9-0.5-1.7-1.1-2.3-1.8c-0.6-0.7-1.1-1.5-1.4-2.4
		c-0.3-0.9-0.5-1.7-0.5-2.6c0-1,0.2-2,0.6-3c0.4-0.9,1-1.8,1.8-2.5c0.8-0.7,1.8-1.3,3-1.7c1.2-0.4,2.6-0.7,4.2-0.7
		c1.5,0,2.7,0.2,3.7,0.5s1.9,0.7,2.6,1.2c0.7,0.4,1.2,0.9,1.6,1.3c0.4,0.4,0.7,0.7,0.8,0.9l-3.4,3.2c-0.1-0.1-0.4-0.3-0.7-0.6
		c-0.3-0.3-0.7-0.6-1.1-0.8c-0.5-0.3-1-0.5-1.6-0.7c-0.6-0.2-1.3-0.3-2.1-0.3c-0.7,0-1.3,0.1-1.8,0.3c-0.5,0.2-1,0.4-1.3,0.7
		c-0.3,0.3-0.6,0.6-0.8,1c-0.2,0.4-0.2,0.7-0.2,1c0,0.5,0.1,0.9,0.3,1.3c0.2,0.4,0.5,0.7,0.9,1.1c0.4,0.3,1,0.6,1.7,0.9
		c0.7,0.3,1.7,0.5,2.8,0.7c1.1,0.2,2.1,0.5,3.1,1c1,0.4,1.9,1,2.6,1.7c0.8,0.7,1.4,1.5,1.8,2.5c0.5,1,0.7,2.2,0.7,3.6
		c0,1.2-0.2,2.3-0.7,3.3c-0.5,1-1.2,1.9-2.1,2.7s-1.9,1.4-3.1,1.8s-2.5,0.6-3.9,0.6c-1.4,0-2.6-0.2-3.7-0.5c-1.1-0.3-2.1-0.7-3-1.3
		c-0.9-0.5-1.7-1.1-2.3-1.7c-0.6-0.6-1.2-1.2-1.6-1.7L82.5,77.9z"/>
	<path fill="#FFFFFF" d="M104.8,58.2h17.8v4.6H110v6.5h9.2v4.6H110V81h13.5v4.6h-18.7V58.2z"/>
	<path fill="#FFFFFF" d="M128.2,58.2h17.8v4.6h-12.6v6.5h9.2v4.6h-9.2V81h13.5v4.6h-18.7V58.2z"/>
</g>
<g>
	<path fill="#4167B1" d="M125.9-42.3c2.2-1.8,4-4,5.4-6.5c1.4-2.5,2.1-5.6,2.1-9.2c0-2.1-0.2-4-0.7-5.7c-0.5-1.7-1.2-3.2-2.1-4.5
		s-2.1-2.2-3.5-2.9c-1.4-0.7-3.1-1-4.9-1c-2,0-3.7,0.4-5,1.2c-1.4,0.8-2.6,1.8-3.5,3.1c-0.9,1.3-1.7,2.7-2.3,4.3
		c-0.6,1.6-1.1,3.3-1.6,4.9c-0.5,2-1.1,4-1.8,6.1c-0.7,2-1.5,3.8-2.6,5.4c-1.1,1.6-2.5,2.9-4.2,3.9c-1.7,1-3.9,1.5-6.5,1.5
		c-1.8,0-3.6-0.4-5.2-1.1c-1.7-0.7-3.1-1.8-4.3-3.2c-1.2-1.4-2.2-3.1-2.9-5.2c-0.7-2-1.1-4.4-1.1-7c0-2.2,0.2-4.2,0.7-5.9
		c0.5-1.7,1.1-3.2,1.8-4.5c0.7-1.3,1.5-2.4,2.4-3.3c0.9-0.9,1.7-1.6,2.5-2.2l2.3,2.7c-0.6,0.5-1.3,1.1-2,1.8c-0.7,0.7-1.4,1.6-2,2.7
		c-0.6,1.1-1.1,2.3-1.5,3.8c-0.4,1.5-0.6,3.1-0.6,5.1c0,2.2,0.3,4,0.9,5.6c0.6,1.6,1.4,2.9,2.3,3.9c1,1,2,1.8,3.2,2.2
		c1.2,0.5,2.4,0.7,3.7,0.7c1.9,0,3.5-0.4,4.8-1.3s2.3-2,3.1-3.5c0.8-1.4,1.5-3,2-4.8c0.5-1.8,1-3.6,1.5-5.4c0.5-1.9,1.1-3.7,1.8-5.6
		c0.7-1.9,1.7-3.5,2.9-5c1.2-1.5,2.7-2.7,4.5-3.6c1.8-0.9,4.1-1.4,6.7-1.4c2.3,0,4.4,0.5,6.2,1.4c1.8,1,3.4,2.2,4.7,3.9
		c1.3,1.6,2.3,3.5,3,5.8c0.7,2.2,1,4.6,1,7.2c0,2.2-0.2,4.3-0.7,6.2c-0.5,1.9-1.1,3.7-1.9,5.2c-0.8,1.6-1.7,2.9-2.6,4.1
		c-1,1.2-2,2.2-3.1,2.9L125.9-42.3z"/>
</g>
<g>
	<path fill="#4167B1" d="M18-47.9c-0.7,1.9-1.3,3.7-1.8,5.6c-0.5,1.8-1,3.6-1.5,5.4c-0.5,1.8-1.2,3.4-2,4.8
		c-0.8,1.4-1.9,2.6-3.1,3.5s-2.8,1.3-4.8,1.3c-1.3,0-2.5-0.2-3.7-0.7c-1.2-0.5-2.3-1.2-3.2-2.2c-1-1-1.7-2.3-2.3-3.9
		c-0.6-1.6-0.9-3.4-0.9-5.6c0-1.9,0.2-3.6,0.6-5.1c0.4-1.5,0.9-2.7,1.5-3.8c0.6-1.1,1.3-2,2-2.7c0.7-0.7,1.4-1.4,2-1.8l-2.3-2.7
		c-0.8,0.6-1.6,1.3-2.5,2.2c-0.9,0.9-1.6,2-2.4,3.3s-1.3,2.8-1.8,4.5S-9-42.2-9-40c0,2.6,0.4,4.9,1.1,7c0.7,2,1.7,3.8,2.9,5.2
		c1.2,1.4,2.7,2.5,4.3,3.2c1.7,0.7,3.4,1.1,5.2,1.1c2.7,0,4.8-0.5,6.5-1.5c1.7-1,3.1-2.3,4.2-3.9c1.1-1.6,2-3.4,2.6-5.4
		c0.4-1.2,0.8-2.4,1.1-3.6v-12.3C18.6-49.4,18.3-48.7,18-47.9z"/>
	<path fill="#FFFFFF" d="M43-52.6c-1.3-1.6-2.8-2.9-4.7-3.9c-1.8-1-3.9-1.4-6.2-1.4c-2.7,0-4.9,0.5-6.7,1.4
		c-1.8,0.9-3.3,2.1-4.5,3.6c-0.7,0.8-1.3,1.8-1.8,2.8v12.3c0.2-0.8,0.5-1.6,0.7-2.4c0.5-1.6,1-3.3,1.6-4.9c0.6-1.6,1.3-3.1,2.3-4.3
		c0.9-1.3,2.1-2.3,3.5-3.1c1.4-0.8,3.1-1.2,5-1.2c1.9,0,3.5,0.3,4.9,1c1.4,0.7,2.6,1.7,3.5,2.9c0.9,1.2,1.6,2.7,2.1,4.5
		c0.5,1.7,0.7,3.6,0.7,5.7c0,3.6-0.7,6.7-2.1,9.2c-1.4,2.5-3.2,4.7-5.4,6.5l2.7,2.8c1.1-0.7,2.1-1.7,3.1-2.9c1-1.2,1.9-2.6,2.6-4.1
		c0.8-1.6,1.4-3.3,1.9-5.2c0.5-1.9,0.7-4,0.7-6.2c0-2.5-0.3-4.9-1-7.2C45.3-49,44.3-51,43-52.6z"/>
</g>
<polygon fill="#FFFFFF" points="29.5,7.8 17,20.3 4.5,7.8 1.9,10.3 17,25.4 32.1,10.3 "/>
<g>
	<path fill="#4167B1" d="M4.5,20.3c0.3,0.4,0.7,0.7,1.1,1.1s0.9,0.8,1.4,1.1c0.5,0.3,1.1,0.6,1.8,0.9c0.7,0.2,1.4,0.3,2.2,0.3
		c1.5,0,2.6-0.3,3.4-1c0.7-0.7,1.1-1.5,1.1-2.5c0-0.5-0.1-1-0.3-1.4c-0.2-0.4-0.6-0.8-1-1.1c-0.5-0.3-1.1-0.6-1.9-0.9
		c-0.8-0.3-1.8-0.5-2.9-0.7c-1.2-0.2-2.2-0.6-3.1-1.1c-0.9-0.5-1.6-1.1-2.1-1.7c-0.6-0.7-1-1.4-1.3-2.2c-0.3-0.8-0.4-1.6-0.4-2.5
		c0-1,0.2-1.9,0.5-2.8c0.4-0.9,0.9-1.7,1.7-2.4c0.7-0.7,1.7-1.2,2.8-1.6s2.4-0.6,4-0.6c1.4,0,2.5,0.2,3.5,0.5c1,0.3,1.8,0.7,2.5,1.1
		s1.2,0.8,1.5,1.2c0.4,0.4,0.6,0.7,0.8,0.9l-3.2,3c-0.1-0.1-0.3-0.3-0.6-0.6c-0.3-0.3-0.6-0.5-1.1-0.8c-0.4-0.3-0.9-0.5-1.5-0.7
		s-1.3-0.3-2-0.3c-0.7,0-1.3,0.1-1.7,0.3C9,5.9,8.6,6.1,8.3,6.4C7.9,6.7,7.7,7,7.6,7.3C7.4,7.7,7.3,8,7.3,8.3c0,0.5,0.1,0.9,0.3,1.2
		c0.2,0.4,0.5,0.7,0.9,1c0.4,0.3,0.9,0.6,1.6,0.8s1.6,0.5,2.6,0.7c1,0.2,2,0.5,2.9,0.9c0.9,0.4,1.7,0.9,2.5,1.6
		c0.7,0.7,1.3,1.5,1.7,2.4c0.4,0.9,0.6,2.1,0.6,3.4c0,1.1-0.2,2.2-0.7,3.1c-0.5,1-1.1,1.8-1.9,2.5c-0.8,0.7-1.8,1.3-2.9,1.7
		c-1.1,0.4-2.4,0.6-3.7,0.6c-1.3,0-2.5-0.2-3.5-0.5c-1-0.3-2-0.7-2.8-1.2c-0.8-0.5-1.6-1-2.2-1.6C2,24.5,1.5,24,1.1,23.5L4.5,20.3z"
		/>
	<path fill="#4167B1" d="M30.8,6.1h-8.7V1.8h22.3v4.3h-8.7v21.5h-4.9V6.1z"/>
	<path fill="#4167B1" d="M58.3,28.3c-1.9,0-3.6-0.4-5.3-1.1c-1.6-0.7-3-1.7-4.3-2.9c-1.2-1.2-2.2-2.7-2.9-4.3c-0.7-1.6-1-3.4-1-5.3
		c0-1.9,0.3-3.6,1-5.3c0.7-1.6,1.6-3.1,2.8-4.3C50,3.9,51.4,2.9,53,2.2c1.6-0.7,3.4-1.1,5.3-1.1c1.9,0,3.6,0.4,5.3,1.1
		c1.6,0.7,3,1.7,4.3,2.9s2.2,2.7,2.9,4.3c0.7,1.6,1,3.4,1,5.3c0,1.9-0.3,3.6-1,5.3c-0.7,1.6-1.6,3.1-2.9,4.3
		c-1.2,1.2-2.6,2.2-4.3,2.9C61.9,27.9,60.2,28.3,58.3,28.3z M58.3,23.7c1.3,0,2.4-0.2,3.4-0.7c1-0.5,1.9-1.2,2.6-2
		c0.7-0.8,1.3-1.8,1.7-2.9c0.4-1.1,0.6-2.3,0.6-3.5c0-1.2-0.2-2.4-0.6-3.5C65.7,10,65.1,9,64.4,8.2c-0.7-0.8-1.6-1.5-2.6-2
		c-1-0.5-2.2-0.7-3.4-0.7c-1.3,0-2.4,0.2-3.5,0.7c-1,0.5-1.9,1.1-2.6,2C51.5,9,51,10,50.6,11.1c-0.4,1.1-0.6,2.3-0.6,3.5
		c0,1.2,0.2,2.4,0.6,3.5c0.4,1.1,0.9,2.1,1.7,2.9c0.7,0.8,1.6,1.5,2.6,2C55.9,23.5,57,23.7,58.3,23.7z"/>
	<path fill="#4167B1" d="M76.1,1.8h8.5c1.6,0,3,0.2,4.1,0.7c1.1,0.5,2,1.1,2.7,1.9c0.7,0.8,1.2,1.6,1.5,2.5c0.3,0.9,0.5,1.8,0.5,2.6
		c0,1.6-0.4,3.1-1.1,4.3s-1.8,2.2-3.3,3l6,10.8h-5.5l-5.2-10.2h-3.7v10.2h-4.7V1.8z M84.7,13.4c1.2,0,2.2-0.4,2.9-1.1
		c0.7-0.7,1-1.6,1-2.6c0-1.1-0.4-2-1.1-2.7c-0.7-0.7-1.7-1-2.8-1h-3.9v7.5H84.7z"/>
	<path fill="#4167B1" d="M104,16.3L95,1.8h5.3l6.2,10.3l6.2-10.3h5.1l-8.9,14.5v11.3H104V16.3z"/>
	<path fill="#4167B1" d="M127.7,1.8h8.9c1.4,0,2.6,0.2,3.6,0.5c1,0.3,1.9,0.8,2.6,1.4c0.7,0.6,1.2,1.3,1.6,2.1
		c0.4,0.8,0.5,1.7,0.5,2.6c0,0.9-0.2,1.7-0.5,2.4c-0.3,0.7-0.7,1.2-1.2,1.7c-0.5,0.5-0.9,0.8-1.4,1c-0.5,0.2-0.8,0.3-1.1,0.3
		c0.5,0.1,1,0.2,1.6,0.4c0.6,0.2,1.2,0.6,1.8,1.1c0.6,0.5,1,1.1,1.4,1.9s0.6,1.7,0.6,2.9c0,1.4-0.2,2.6-0.7,3.5
		c-0.5,0.9-1.2,1.7-2,2.3c-0.9,0.6-1.9,1-3.1,1.2s-2.4,0.4-3.8,0.4h-8.9V1.8z M136.4,12.1c0.5,0,1-0.1,1.4-0.2
		c0.5-0.1,0.9-0.3,1.3-0.5c0.4-0.3,0.7-0.6,0.9-1s0.3-0.9,0.3-1.5s-0.1-1.1-0.3-1.5c-0.2-0.4-0.5-0.7-0.9-0.9
		c-0.4-0.2-0.8-0.4-1.3-0.5C137.3,6,136.8,6,136.4,6h-3.9v6.1H136.4z M136.5,23.5c0.5,0,1,0,1.5-0.1c0.6-0.1,1.1-0.2,1.6-0.5
		s0.9-0.6,1.2-1.1c0.3-0.5,0.5-1.1,0.5-2c0-0.8-0.2-1.4-0.5-1.9s-0.7-0.9-1.2-1.1c-0.5-0.3-1-0.5-1.6-0.6c-0.6-0.1-1.1-0.2-1.6-0.2
		h-4.1v7.3H136.5z"/>
	<path fill="#4167B1" d="M158,1.8h5l9.8,25.8h-5.4l-2.2-6.5h-9.6l-2.2,6.5h-5.1L158,1.8z M163.8,17.1l-3.4-10l-3.4,10H163.8z"/>
	<path fill="#4167B1" d="M175.7,1.8h4.9l12.5,18.3V1.8h4.8v25.8h-4.8L180.5,9.1v18.6h-4.8V1.8z"/>
	<path fill="#4167B1" d="M203.3,1.8h4.9v10.6l9.5-10.6h5.5l-9.5,10.6l10.6,15.2h-5.9l-7.8-11.7l-2.4,2.7v9h-4.9V1.8z"/>
</g>
</svg>
